<svg display="none" xmlns="http://www.w3.org/2000/svg">
        <symbol id="tasks" viewBox="0 0 20 20">
            <path fill-rule="evenodd" clip-rule="evenodd" d="M1 4H5C5.55228 4 6 4.44772 6 5V19C6 19.5523 5.55228 20 5 20H1C0.44772 20 0 19.5523 0 19V5C0 4.44772 0.44772 4 1 4zM2 13V17C2 17.5523 2.44772 18 3 18C3.55228 18 4 17.5523 4 17V13C4 12.4477 3.55228 12 3 12C2.44772 12 2 12.4477 2 13zM8 0H12C12.5523 0 13 0.44772 13 1V19C13 19.5523 12.5523 20 12 20H8C7.44772 20 7 19.5523 7 19V1C7 0.44772 7.44772 0 8 0zM9 11V17C9 17.5523 9.4477 18 10 18C10.5523 18 11 17.5523 11 17V11C11 10.4477 10.5523 10 10 10C9.4477 10 9 10.4477 9 11zM15 2H19C19.5523 2 20 2.44772 20 3V19C20 19.5523 19.5523 20 19 20H15C14.4477 20 14 19.5523 14 19V3C14 2.44772 14.4477 2 15 2zM16 15V17C16 17.5523 16.4477 18 17 18C17.5523 18 18 17.5523 18 17V15C18 14.4477 17.5523 14 17 14C16.4477 14 16 14.4477 16 15z" fill="#758CA3"/>
        </symbol>
        <symbol id="check" viewBox="0 0 16 16">
            <path fill-rule="evenodd" clip-rule="evenodd" d="M8 16C3.58172 16 0 12.4183 0 8C0 3.58172 3.58172 0 8 0C12.4183 0 16 3.58172 16 8C16 12.4183 12.4183 16 8 16zM5.70711 7.2929C5.31658 6.9024 4.68342 6.9024 4.29289 7.2929C3.90237 7.6834 3.90237 8.3166 4.29289 8.7071L6.2929 10.7071C6.6834 11.0976 7.3166 11.0976 7.7071 10.7071L11.7071 6.7071C12.0976 6.3166 12.0976 5.68342 11.7071 5.29289C11.3166 4.90237 10.6834 4.90237 10.2929 5.29289L7 8.5858L5.70711 7.2929z" fill="#758CA3"/>
        </symbol>
         <symbol id="complete" viewBox="0 0 16 16">
            <path fill-rule="evenodd" clip-rule="evenodd" d="M8 16C3.58172 16 0 12.4183 0 8C0 3.58172 3.58172 0 8 0C12.4183 0 16 3.58172 16 8C16 12.4183 12.4183 16 8 16zM5.70711 7.2929C5.31658 6.9024 4.68342 6.9024 4.29289 7.2929C3.90237 7.6834 3.90237 8.3166 4.29289 8.7071L6.2929 10.7071C6.6834 11.0976 7.3166 11.0976 7.7071 10.7071L11.7071 6.7071C12.0976 6.3166 12.0976 5.68342 11.7071 5.29289C11.3166 4.90237 10.6834 4.90237 10.2929 5.29289L7 8.5858L5.70711 7.2929z" fill="#00FF00"/>
        </symbol>
        <symbol id="edit" viewBox="0 0 24 24">
            <path fill-rule="evenodd" clip-rule="evenodd" d="M16.6256 3.13179L17.6569 2.10051C18.0474 1.70998 18.6805 1.70998 19.0711 2.10051L21.8995 4.92893C22.29 5.31946 22.29 5.95262 21.8995 6.34315L20.8682 7.37443C21.1384 7.89138 21.3647 8.43488 21.5422 9H23C23.5523 9 24 9.44771 24 10V14C24 14.5523 23.5523 15 23 15H21.5422C21.3647 15.5651 21.1384 16.1086 20.8682 16.6256L21.8995 17.6569C22.29 18.0474 22.29 18.6805 21.8995 19.0711L19.0711 21.8995C18.6805 22.29 18.0474 22.29 17.6569 21.8995L16.6256 20.8682C16.1086 21.1384 15.5651 21.3647 15 21.5422V23C15 23.5523 14.5523 24 14 24H10C9.44771 24 9 23.5523 9 23V21.5422C8.43488 21.3647 7.89138 21.1384 7.37443 20.8682L6.34315 21.8995C5.95262 22.29 5.31946 22.29 4.92893 21.8995L2.10051 19.0711C1.70998 18.6805 1.70998 18.0474 2.10051 17.6569L3.13179 16.6256C2.86161 16.1086 2.6353 15.5651 2.4578 15H1C0.447715 15 0 14.5523 0 14V10C0 9.44771 0.447715 9 1 9H2.4578C2.6353 8.43488 2.86161 7.89138 3.13179 7.37443L2.10051 6.34315C1.70998 5.95262 1.70998 5.31946 2.10051 4.92893L4.92893 2.10051C5.31946 1.70998 5.95262 1.70998 6.34315 2.10051L7.37443 3.13179C7.89138 2.86161 8.43488 2.6353 9 2.4578V1C9 0.447715 9.44771 0 10 0H14C14.5523 0 15 0.447715 15 1V2.4578C15.5651 2.6353 16.1086 2.86161 16.6256 3.13179ZM12 17C9.23858 17 7 14.7614 7 12C7 9.23858 9.23858 7 12 7C14.7614 7 17 9.23858 17 12C17 14.7614 14.7614 17 12 17ZM12 15C13.6569 15 15 13.6569 15 12C15 10.3431 13.6569 9 12 9C10.3431 9 9 10.3431 9 12C9 13.6569 10.3431 15 12 15Z" fill="#758CA3"/>
        </symbol>
        <symbol id="close" viewBox="0 0 16 16">
            <path fill-rule="evenodd" clip-rule="evenodd" d="M8 6.5858L6.5858 5.17157C6.1953 4.78105 5.5621 4.78105 5.17157 5.17157C4.78105 5.5621 4.78105 6.1953 5.17157 6.5858L6.5858 8L5.17157 9.4142C4.78105 9.8047 4.78105 10.4379 5.17157 10.8284C5.5621 11.219 6.1953 11.219 6.5858 10.8284L8 9.4142L9.4142 10.8284C9.8047 11.219 10.4379 11.219 10.8284 10.8284C11.219 10.4379 11.219 9.8047 10.8284 9.4142L9.4142 8L10.8284 6.5858C11.219 6.1953 11.219 5.5621 10.8284 5.17157C10.4379 4.78105 9.8047 4.78105 9.4142 5.17157L8 6.5858zM2.34315 13.6569C-0.78105 10.5327 -0.78105 5.46734 2.34315 2.34315C5.46734 -0.78105 10.5327 -0.78105 13.6569 2.34315C16.781 5.46734 16.781 10.5327 13.6569 13.6569C10.5327 16.781 5.46734 16.781 2.34315 13.6569z" fill="#758CA3"/>
        </symbol>
    </svg>